<?xml version="1.0" ?><!DOCTYPE svg  PUBLIC '-//W3C//DTD SVG 1.1//EN'  'http://www.w3.org/Graphics/SVG/1.1/DTD/svg11.dtd'><!-- Uploaded to: SVG Repo, www.svgrepo.com, Generator: SVG Repo Mixer Tools -->
<svg fill="#000000" width="800px" height="800px" viewBox="0 0 32 32" style="fill-rule:evenodd;clip-rule:evenodd;stroke-linejoin:round;stroke-miterlimit:2;" version="1.1" xml:space="preserve" xmlns="http://www.w3.org/2000/svg" xmlns:serif="http://www.serif.com/" xmlns:xlink="http://www.w3.org/1999/xlink"><path d="M25.994,9.026l0,-4.038c0,-0.796 -0.316,-1.559 -0.879,-2.122c-0.562,-0.562 -1.325,-0.878 -2.121,-0.878c-3.463,-0 -10.537,-0 -14,-0c-0.795,-0 -1.559,0.316 -2.121,0.878c-0.563,0.563 -0.879,1.326 -0.879,2.122l0,22.012c0,0.796 0.316,1.559 0.879,2.121c0.562,0.563 1.326,0.879 2.121,0.879c3.463,0 10.537,0 14,0c0.552,0 1,-0.448 1,-1c0,-0.552 -0.448,-1 -1,-1c-3.463,0 -10.537,0 -14,-0c-0.265,0 -0.519,-0.105 -0.707,-0.293c-0.187,-0.187 -0.293,-0.442 -0.293,-0.707c0,-0 0,-22.012 0,-22.012c0,-0.266 0.106,-0.52 0.293,-0.707c0.188,-0.188 0.442,-0.293 0.707,-0.293l14,-0c0.265,-0 0.52,0.105 0.707,0.293c0.188,0.187 0.293,0.441 0.293,0.707c0,-0 0,4.038 0,4.038c0,0.552 0.448,1 1,1c0.552,-0 1,-0.448 1,-1Z"/><path d="M14.996,8.026l-0.989,-0c-0.552,-0 -1,0.448 -1,1c0,0.552 0.448,1 1,1l0.986,-0l-0.002,0.985c-0,0.552 0.447,1.001 0.999,1.002c0.552,0.001 1.001,-0.447 1.001,-0.999l0.002,-0.988l0.989,-0c0.552,-0 1,-0.448 1,-1c-0,-0.552 -0.448,-1 -1,-1l-0.986,-0l0.002,-0.986c0,-0.552 -0.447,-1.001 -0.999,-1.001c-0.552,-0.001 -1.001,0.446 -1.001,0.998l-0.002,0.989Z"/><path d="M28.003,22.013l0,-7.018c0,-1.657 -1.343,-3 -3,-3l-4.001,-0c-1.657,-0 -3,1.343 -3,3l-0,7.018c-0,0.316 0.149,0.613 0.402,0.802l4.024,3c0.357,0.266 0.845,0.264 1.2,-0.003l3.978,-3c0.25,-0.189 0.397,-0.485 0.397,-0.799Zm-2,-7.018l0,6.52c0,-0 -2.981,2.248 -2.981,2.248c0,0 -3.02,-2.252 -3.02,-2.252c-0,0 -0,-6.516 -0,-6.516c-0,-0.552 0.447,-1 1,-1c-0,-0 4.001,-0 4.001,-0c0.553,-0 1,0.448 1,1Z"/><path d="M10.993,16.988l4.004,0.003c0.552,0.001 1,-0.447 1.001,-0.999c0,-0.552 -0.447,-1 -0.999,-1.001l-4.004,-0.003c-0.552,-0.001 -1,0.447 -1.001,0.999c-0,0.552 0.447,1 0.999,1.001Z"/><path d="M11.002,20.988l4.004,0.003c0.552,0.001 1,-0.447 1.001,-0.999c0,-0.552 -0.448,-1 -1,-1.001l-4.003,-0.003c-0.552,-0.001 -1.001,0.447 -1.001,0.999c-0.001,0.552 0.447,1 0.999,1.001Z"/><path d="M10.993,24.988l4.004,0.003c0.552,0.001 1,-0.447 1.001,-0.999c0,-0.552 -0.447,-1 -0.999,-1.001l-4.004,-0.003c-0.552,-0.001 -1,0.447 -1.001,0.999c-0,0.552 0.447,1 0.999,1.001Z"/></svg>